<svg width="82" height="93" viewBox="0 0 82 93" fill="none" xmlns="http://www.w3.org/2000/svg">
<path d="M39.3589 0.354009C40.1792 -0.118003 41.1888 -0.118003 42.0091 0.35401L79.7613 22.0752C80.5854 22.5493 81.0933 23.4276 81.0933 24.3783V67.8048C81.0933 68.7556 80.5854 69.6338 79.7613 70.108L42.0091 91.8291C41.1888 92.3012 40.1792 92.3012 39.3589 91.8291L1.60666 70.108C0.782605 69.6338 0.274658 68.7556 0.274658 67.8048V24.3783C0.274658 23.4276 0.782607 22.5493 1.60667 22.0752L39.3589 0.354009Z" fill="url(#paint0_linear_131_566)"/>
<path d="M40.4126 34.7001L32.3738 42.7112L27.6968 38.0496L40.4126 25.3776L53.1325 38.0534L48.4551 42.7147L40.4126 34.7001Z" fill="#16163F"/>
<path d="M24.3938 41.3405L19.7163 46.0026L24.3935 50.663L29.071 46.0016L24.3938 41.3405Z" fill="#16163F"/>
<path d="M40.4126 57.3051L32.3738 49.2945L27.6902 53.949L40.4126 66.6276L53.1325 53.952L53.1348 53.9495L48.455 49.2907L40.4126 57.3051Z" fill="#16163F"/>
<path d="M56.4317 41.3432L51.7541 46.0046L56.4315 50.6657L61.1088 46.0043L56.4317 41.3432Z" fill="#16163F"/>
<path d="M45.1579 45.999H45.1562L45.1605 46.0013L45.1582 46.0039L40.4119 50.7337L35.6697 46.0074L35.6631 46.0006L35.6697 45.9942L40.4119 41.2691L45.1579 45.999Z" fill="#16163F"/>
<defs>
<linearGradient id="paint0_linear_131_566" x1="40.5237" y1="6.59158" x2="40.5237" y2="99.5916" gradientUnits="userSpaceOnUse">
<stop stop-color="#DCEDFB"/>
<stop offset="1" stop-color="#F3F8FD"/>
</linearGradient>
</defs>
</svg>
