<svg width="82" height="93" viewBox="0 0 82 93" fill="none" xmlns="http://www.w3.org/2000/svg">
<path d="M39.7214 0.354009C40.5418 -0.118003 41.5513 -0.118003 42.3717 0.35401L80.1239 22.0752C80.9479 22.5493 81.4559 23.4276 81.4559 24.3783V67.8048C81.4559 68.7556 80.9479 69.6338 80.1239 70.108L42.3717 91.8291C41.5513 92.3012 40.5418 92.3012 39.7214 91.8291L1.96921 70.108C1.14515 69.6338 0.637207 68.7556 0.637207 67.8048V24.3783C0.637207 23.4276 1.14516 22.5493 1.96921 22.0752L39.7214 0.354009Z" fill="url(#paint0_linear_131_546)"/>
<g clip-path="url(#clip0_131_546)">
<path d="M53.7841 38.2002C53.245 33.8506 49.4282 32.4905 44.6478 32.2026L44.4838 26.1537L40.7891 26.2537L40.9491 32.1433C39.9777 32.1693 38.9855 32.2153 37.9995 32.2614L37.8393 26.3328L34.1468 26.4322L34.3095 32.4794C33.5102 32.5173 32.7249 32.5534 31.959 32.5744L31.9581 32.5555L26.8622 32.6909L26.9699 36.6234C26.9699 36.6234 29.6968 36.4982 29.6528 36.5492C31.1492 36.5093 31.6599 37.3622 31.8221 38.1054L32.0092 44.9964C32.1124 44.9941 32.2472 44.9947 32.4005 45.0117C32.2772 45.0152 32.1459 45.018 32.0101 45.0229L32.2709 54.6767C32.2182 55.1477 31.9617 55.9038 30.916 55.9336C30.9646 55.974 28.2304 56.0053 28.2304 56.0053L27.6154 60.4224L32.4236 60.2928C33.3184 60.2699 34.1992 60.2613 35.0638 60.2432L35.2314 66.361L38.9221 66.2621L38.7577 60.2088C39.7717 60.2025 40.7524 60.1841 41.71 60.1575L41.8718 66.1827L45.5666 66.0827L45.4019 59.9756C51.604 59.4532 55.9091 57.7769 56.2911 51.9491C56.5999 47.2567 54.334 45.2277 50.7853 44.4789C52.8981 43.334 54.1841 41.3827 53.7841 38.2002ZM48.9697 51.4207C49.0957 55.9925 41.2264 55.6842 38.7224 55.7539L38.5036 47.648C41.0082 47.5814 48.8406 46.6521 48.9697 51.4207ZM46.9411 40.0307C47.0529 44.1901 40.4886 43.8813 38.4029 43.9376L38.2038 36.5862C40.2896 36.5299 46.8229 35.6927 46.9411 40.0307Z" fill="#16163F"/>
</g>
<defs>
<linearGradient id="paint0_linear_131_546" x1="40.8862" y1="6.59158" x2="40.8862" y2="99.5916" gradientUnits="userSpaceOnUse">
<stop stop-color="#DCEDFB"/>
<stop offset="1" stop-color="#F3F8FD"/>
</linearGradient>
<clipPath id="clip0_131_546">
<rect width="44.1411" height="44.0109" fill="white" transform="matrix(0.963645 -0.267186 0.268902 0.963167 13.5898 30.7047)"/>
</clipPath>
</defs>
</svg>
