<svg width="41" height="41" viewBox="0 0 41 41" fill="none" xmlns="http://www.w3.org/2000/svg">
<g clip-path="url(#clip0_101_2934)">
<path d="M40.4863 33.36C40.6379 32.9502 23.2272 19.8038 23.2272 19.8038C21.0475 18.1953 19.9011 18.17 17.7457 19.8038C17.7457 19.8038 0.360361 32.9396 0.506689 33.3437L0.503174 33.3467C0.504971 33.3502 0.507861 33.3526 0.510283 33.3558C0.6577 33.7577 0.87217 34.1317 1.14458 34.4618C1.25966 34.6014 1.39833 34.7182 1.53169 34.8397L1.52521 34.8447C1.53583 34.8542 1.54997 34.8586 1.5606 34.868C2.12583 35.3722 2.83864 35.6988 3.63052 35.792C3.64294 35.7935 3.65294 35.8 3.66536 35.8014H3.71317C3.83356 35.8129 3.94802 35.8418 4.0713 35.8418H36.9401C38.5586 35.8418 39.9299 34.824 40.4746 33.3972C40.4811 33.3866 40.4911 33.3789 40.497 33.368L40.4863 33.36Z" fill="#96A9B2"/>
<path d="M20.5104 18.2951L0.594971 33.2316V12.0715C0.594971 10.009 2.26661 8.3374 4.32911 8.3374H36.6916C38.7541 8.3374 40.4258 10.009 40.4258 12.0715V33.2316L20.5104 18.2951Z" fill="#B9C5C6"/>
<path d="M0.827148 10.7731L17.8307 24.1284C19.9768 25.7121 21.1055 25.7371 23.2278 24.1284L40.2046 10.7942C39.91 10.2603 39.4691 9.83853 38.9648 9.5022L39.1983 9.31923C38.6284 8.8004 37.8999 8.46407 37.0912 8.3772L3.93066 8.37837C3.12426 8.46407 2.39457 8.80157 1.82582 9.31923L2.05762 9.49993C1.55918 9.83157 1.1223 10.2461 0.827148 10.7731Z" fill="#EDECE6"/>
<path d="M0.821504 10.8013C0.672207 11.2049 17.8146 24.1486 17.8146 24.1486C19.9607 25.7323 21.0895 25.7573 23.2117 24.1486C23.2117 24.1486 40.3292 11.2153 40.185 10.8174L40.1885 10.8145C40.1868 10.8109 40.1839 10.8087 40.1816 10.8055C40.0364 10.4098 39.8253 10.0416 39.5571 9.71649C39.4438 9.57907 39.3072 9.46407 39.176 9.34438L39.1824 9.33946C39.1719 9.33017 39.158 9.32579 39.1475 9.31649C38.591 8.82009 37.8892 8.49853 37.1096 8.40673C37.0974 8.40524 37.0874 8.39892 37.0753 8.39743H37.0282C36.9097 8.3861 36.797 8.35767 36.6756 8.35767H4.31307C2.71947 8.35767 1.36932 9.35985 0.833145 10.7646C0.826738 10.7751 0.816895 10.7827 0.811035 10.7934L0.821504 10.8013Z" fill="#DCE2E2"/>
</g>
<defs>
<clipPath id="clip0_101_2934">
<rect width="40" height="40" fill="white" transform="translate(0.5 0.15625)"/>
</clipPath>
</defs>
</svg>
