<svg width="82" height="93" viewBox="0 0 82 93" fill="none" xmlns="http://www.w3.org/2000/svg">
<path d="M39.5403 0.354009C40.3606 -0.118003 41.3701 -0.118003 42.1905 0.35401L79.9427 22.0752C80.7668 22.5493 81.2747 23.4276 81.2747 24.3783V67.8048C81.2747 68.7556 80.7668 69.6338 79.9427 70.108L42.1905 91.8291C41.3701 92.3012 40.3606 92.3012 39.5403 91.8291L1.78806 70.108C0.964001 69.6338 0.456055 68.7556 0.456055 67.8048V24.3783C0.456055 23.4276 0.964003 22.5493 1.78806 22.0752L39.5403 0.354009Z" fill="url(#paint0_linear_131_556)"/>
<path d="M28.1769 46.3841L40.8809 25.3776V25.3876L40.8838 25.3776L53.5858 46.3812L53.5925 46.3843L40.8885 53.8679V53.8656L40.8838 53.8683L40.8809 53.8654V53.8679L28.1769 46.3841Z" fill="#16163F"/>
<path d="M40.8809 66.6188V66.6276L28.1765 48.7867L40.8809 56.2665V56.2702L40.8839 56.2665L53.5958 48.7867L40.8839 66.6276L40.8809 66.6188Z" fill="#16163F"/>
<defs>
<linearGradient id="paint0_linear_131_556" x1="40.7051" y1="6.59158" x2="40.7051" y2="99.5916" gradientUnits="userSpaceOnUse">
<stop stop-color="#DCEDFB"/>
<stop offset="1" stop-color="#F3F8FD"/>
</linearGradient>
</defs>
</svg>
