<svg width="22" height="20" viewBox="0 0 22 20" fill="none" xmlns="http://www.w3.org/2000/svg">
<path d="M11.0001 0.25C5.04175 0.25 0.166748 4.12833 0.166748 8.91667C0.193949 10.0679 0.475094 11.199 0.990093 12.229C1.50509 13.259 2.24123 14.1625 3.14591 14.875C3.14591 15.525 2.69091 17.2258 0.166748 19.75C2.73425 19.6308 5.19341 18.6667 7.17591 17.0417C8.41091 17.3992 9.71091 17.5833 11.0001 17.5833C16.9584 17.5833 21.8334 13.705 21.8334 8.91667C21.8334 4.12833 16.9584 0.25 11.0001 0.25ZM11.0001 15.4167C6.21175 15.4167 2.33341 12.5025 2.33341 8.91667C2.33341 5.33083 6.21175 2.41667 11.0001 2.41667C15.7884 2.41667 19.6667 5.33083 19.6667 8.91667C19.6667 12.5025 15.7884 15.4167 11.0001 15.4167ZM16.4167 10V7.83333H14.2501V10H16.4167ZM12.0834 10V7.83333H9.91675V10H12.0834ZM7.75008 10V7.83333H5.58341V10H7.75008Z" fill="white"/>
</svg>
