<svg width="81" height="93" viewBox="0 0 81 93" fill="none" xmlns="http://www.w3.org/2000/svg">
<path d="M39.1775 0.354009C39.9978 -0.118003 41.0074 -0.118003 41.8277 0.35401L79.5799 22.0752C80.404 22.5493 80.9119 23.4276 80.9119 24.3783V67.8048C80.9119 68.7556 80.404 69.6338 79.5799 70.108L41.8277 91.8291C41.0074 92.3012 39.9978 92.3012 39.1775 91.8291L1.42527 70.108C0.601208 69.6338 0.0932617 68.7556 0.0932617 67.8048V24.3783C0.0932617 23.4276 0.60121 22.5493 1.42527 22.0752L39.1775 0.354009Z" fill="url(#paint0_linear_131_576)"/>
<path d="M51.0742 29.9549L43.5804 41.0379C43.0622 41.7927 44.0586 42.7063 44.7761 42.0707L52.1504 35.6752C52.3499 35.5163 52.6288 35.6355 52.6288 35.9135V55.8946C52.6288 56.1728 52.2701 56.292 52.1106 56.0932L29.7883 29.4782C29.0708 28.6043 28.0345 28.1276 26.8785 28.1276H26.0812C24.0085 28.1276 22.2944 29.8358 22.2944 31.9411V60.0657C22.2944 62.171 24.0085 63.8792 26.1211 63.8792C27.4365 63.8792 28.6722 63.2038 29.3897 62.0519L36.8836 50.9689C37.4018 50.2142 36.4053 49.3004 35.6878 49.9361L28.3135 56.292C28.1142 56.4507 27.8351 56.3317 27.8351 56.0535V36.1121C27.8351 35.8341 28.1939 35.7149 28.3533 35.9135L50.6756 62.5285C51.3931 63.4024 52.4693 63.8792 53.5854 63.8792H54.3827C56.4954 63.8792 58.2094 62.171 58.2094 60.0657V31.9411C58.1695 29.8358 56.4554 28.1276 54.3429 28.1276C53.0274 28.1276 51.7917 28.8029 51.0742 29.9549Z" fill="#16163F"/>
<defs>
<linearGradient id="paint0_linear_131_576" x1="40.3423" y1="6.59158" x2="40.3423" y2="99.5916" gradientUnits="userSpaceOnUse">
<stop stop-color="#DCEDFB"/>
<stop offset="1" stop-color="#F3F8FD"/>
</linearGradient>
</defs>
</svg>
