<svg width="82" height="93" viewBox="0 0 82 93" fill="none" xmlns="http://www.w3.org/2000/svg">
<path d="M39.9028 0.354009C40.7232 -0.118003 41.7327 -0.118003 42.5531 0.35401L80.3053 22.0752C81.1293 22.5493 81.6373 23.4276 81.6373 24.3783V67.8048C81.6373 68.7556 81.1293 69.6338 80.3053 70.108L42.5531 91.8291C41.7327 92.3012 40.7232 92.3012 39.9028 91.8291L2.15061 70.108C1.32655 69.6338 0.818604 68.7556 0.818604 67.8048V24.3783C0.818604 23.4276 1.32655 22.5493 2.15061 22.0752L39.9028 0.354009Z" fill="url(#paint0_linear_131_538)"/>
<path d="M39.9028 0.354009C40.7232 -0.118003 41.7327 -0.118003 42.5531 0.35401L80.3053 22.0752C81.1293 22.5493 81.6373 23.4276 81.6373 24.3783V67.8048C81.6373 68.7556 81.1293 69.6338 80.3053 70.108L42.5531 91.8291C41.7327 92.3012 40.7232 92.3012 39.9028 91.8291L2.15061 70.108C1.32655 69.6338 0.818604 68.7556 0.818604 67.8048V24.3783C0.818604 23.4276 1.32655 22.5493 2.15061 22.0752L39.9028 0.354009Z" fill="url(#paint1_linear_131_538)"/>
<path d="M46.0842 30.6108L40.9565 25.3776L28.0445 38.3682L33.1722 43.4783L46.0842 30.6108Z" fill="#16163F"/>
<path d="M53.8684 38.3684L48.7407 33.1352L28.0445 53.8832L33.1722 58.9932L53.8684 38.3684Z" fill="#16163F"/>
<path d="M25.3882 40.8924L30.5159 46.1256L25.3882 51.2357L20.2605 46.1256L25.3882 40.8924Z" fill="#16163F"/>
<path d="M61.653 46.1256L56.5253 40.8924L35.8292 61.6404L40.9569 66.7505L61.653 46.1256Z" fill="#16163F"/>
<defs>
<linearGradient id="paint0_linear_131_538" x1="41.0675" y1="6.23927" x2="41.0675" y2="100.069" gradientUnits="userSpaceOnUse">
<stop stop-color="#A9C4D9"/>
<stop offset="1" stop-color="#DBE5EE"/>
</linearGradient>
<linearGradient id="paint1_linear_131_538" x1="41.0676" y1="6.59158" x2="41.0676" y2="99.5916" gradientUnits="userSpaceOnUse">
<stop stop-color="#DCEDFB"/>
<stop offset="1" stop-color="#F3F8FD"/>
</linearGradient>
</defs>
</svg>
