<svg width="37" height="37" viewBox="0 0 37 37" fill="none" xmlns="http://www.w3.org/2000/svg">
<g clip-path="url(#clip0_101_2911)">
<path d="M18.5 0.15625C13.7272 0.15625 9.14562 2.05384 5.77344 5.42828C2.39777 8.80406 0.500935 13.3823 0.5 18.1562C0.5 22.9282 2.39844 27.5098 5.77344 30.8842C9.14562 34.2587 13.7272 36.1562 18.5 36.1562C23.2728 36.1562 27.8544 34.2587 31.2266 30.8842C34.6016 27.5098 36.5 22.9282 36.5 18.1562C36.5 13.3843 34.6016 8.80272 31.2266 5.42828C27.8544 2.05384 23.2728 0.15625 18.5 0.15625Z" fill="url(#paint0_linear_101_2911)"/>
<path d="M8.64777 17.9663C13.8959 15.6803 17.3946 14.1731 19.144 13.4449C24.1446 11.3657 25.1825 11.0045 25.8603 10.9923C26.0093 10.9899 26.3412 11.0267 26.5578 11.2018C26.7378 11.3495 26.7884 11.5492 26.8137 11.6894C26.8362 11.8294 26.8671 12.1487 26.8418 12.3978C26.5718 15.2441 25.399 22.151 24.8028 25.339C24.5525 26.6879 24.0546 27.1401 23.5737 27.1843C22.5275 27.2805 21.7343 26.4935 20.7218 25.8301C19.1384 24.7914 18.244 24.1451 16.7056 23.1317C14.9281 21.9606 16.0812 21.3168 17.0937 20.265C17.3581 19.9896 21.965 15.8004 22.0521 15.4204C22.0634 15.3729 22.0746 15.1957 21.9678 15.1023C21.8637 15.0087 21.709 15.0407 21.5965 15.0661C21.4362 15.1021 18.9078 16.7749 14.0028 20.0844C13.2856 20.5777 12.6359 20.8182 12.0509 20.8055C11.4096 20.7917 10.1721 20.4422 9.25245 20.1435C8.12745 19.777 7.23027 19.5832 7.30902 18.9608C7.34839 18.6368 7.79558 18.3052 8.64777 17.9663Z" fill="white"/>
</g>
<defs>
<linearGradient id="paint0_linear_101_2911" x1="18.5" y1="0.15625" x2="18.5" y2="36.1562" gradientUnits="userSpaceOnUse">
<stop stop-color="#2AABEE"/>
<stop offset="1" stop-color="#229ED9"/>
</linearGradient>
<clipPath id="clip0_101_2911">
<rect width="36" height="36" fill="white" transform="translate(0.5 0.15625)"/>
</clipPath>
</defs>
</svg>
