<svg width="81" height="93" viewBox="0 0 81 93" fill="none" xmlns="http://www.w3.org/2000/svg">
<path d="M39.0842 0.354009C39.9046 -0.118003 40.9141 -0.118003 41.7345 0.35401L79.4867 22.0752C80.3107 22.5493 80.8187 23.4276 80.8187 24.3783V67.8048C80.8187 68.7556 80.3107 69.6338 79.4867 70.108L41.7345 91.8291C40.9141 92.3012 39.9046 92.3012 39.0842 91.8291L1.332 70.108C0.507946 69.6338 0 68.7556 0 67.8048V24.3783C0 23.4276 0.507948 22.5493 1.33201 22.0752L39.0842 0.354009Z" fill="url(#paint0_linear_131_537)"/>
<path fill-rule="evenodd" clip-rule="evenodd" d="M44.5072 47.5823C44.284 47.599 43.1306 47.6675 40.558 47.6675C38.5118 47.6675 37.059 47.6064 36.5493 47.5823C28.6416 47.2356 22.7393 45.8638 22.7393 44.2214C22.7393 42.5789 28.6416 41.209 36.5493 40.8567V46.216C37.0664 46.2531 38.5471 46.3402 40.5933 46.3402C43.0488 46.3402 44.2784 46.2383 44.4997 46.2179V40.8605C52.3906 41.2108 58.28 42.5826 58.28 44.2214C58.28 45.8601 52.3925 47.2319 44.4997 47.5804L44.5072 47.5823ZM44.5072 40.3062V35.5104H55.5195V28.1973H25.537V35.5104H36.5474V40.3043C27.5981 40.714 20.8679 42.4807 20.8679 44.5977C20.8679 46.7147 27.5981 48.4795 36.5474 48.891V64.2589H44.5053V48.8855C53.4342 48.4758 60.1532 46.711 60.1532 44.5958C60.1532 42.4807 53.4398 40.7159 44.5053 40.3043L44.5072 40.3062Z" fill="#16163F"/>
<defs>
<linearGradient id="paint0_linear_131_537" x1="40.249" y1="6.59158" x2="40.249" y2="99.5916" gradientUnits="userSpaceOnUse">
<stop stop-color="#DCEDFB"/>
<stop offset="1" stop-color="#F3F8FD"/>
</linearGradient>
</defs>
</svg>
