<svg width="49" height="49" viewBox="0 0 49 49" fill="none" xmlns="http://www.w3.org/2000/svg">
<path opacity="0.8" d="M31.6637 16.5007L43.9137 36.1007C44.0296 36.2861 44.0937 36.4992 44.0995 36.7178C44.1052 36.9364 44.0523 37.1525 43.9463 37.3438C43.8403 37.535 43.6851 37.6944 43.4967 37.8054C43.3083 37.9164 43.0936 37.9749 42.8749 37.9749H18.3749C18.1562 37.9749 17.9416 37.9164 17.7531 37.8054C17.5647 37.6944 17.4095 37.535 17.3035 37.3438C17.1975 37.1525 17.1446 36.9364 17.1503 36.7178C17.1561 36.4992 17.2202 36.2861 17.3361 36.1007L29.5861 16.5007C29.6962 16.3245 29.8493 16.1792 30.0311 16.0785C30.2128 15.9778 30.4171 15.9249 30.6249 15.9249C30.8327 15.9249 31.037 15.9778 31.2187 16.0785C31.4005 16.1792 31.5536 16.3245 31.6637 16.5007Z" fill="white" fill-opacity="0.6"/>
<path fill-rule="evenodd" clip-rule="evenodd" d="M37.7887 33.6507L25.5387 14.0507C25.4286 13.8745 25.2755 13.7293 25.0937 13.6285C24.912 13.5278 24.7077 13.475 24.4999 13.475C24.2921 13.475 24.0878 13.5278 23.9061 13.6285C23.7243 13.7293 23.5712 13.8745 23.4611 14.0507L11.2111 33.6507C11.0952 33.8362 11.0311 34.0492 11.0253 34.2678C11.0196 34.4864 11.0725 34.7026 11.1785 34.8938C11.2845 35.0851 11.4397 35.2445 11.6281 35.3555C11.8166 35.4664 12.0312 35.525 12.2499 35.525H36.7499C36.9686 35.525 37.1833 35.4664 37.3717 35.3555C37.5601 35.2445 37.7153 35.0851 37.8213 34.8938C37.9273 34.7026 37.9802 34.4864 37.9745 34.2678C37.9687 34.0492 37.9046 33.8362 37.7887 33.6507ZM14.4598 33.075L24.4999 17.0103L34.54 33.075H14.4598Z" fill="white" fill-opacity="0.8"/>
</svg>
