<svg width="41" height="41" viewBox="0 0 41 41" fill="none" xmlns="http://www.w3.org/2000/svg">
<g clip-path="url(#clip0_101_2918)">
<path d="M1.35356 19.9149C1.35263 23.302 2.23763 26.6092 3.92044 29.5242L1.19263 39.4838L11.3851 36.8113C14.2042 38.346 17.3628 39.1502 20.5726 39.1504H20.5811C31.1772 39.1504 39.8026 30.5281 39.8072 19.9301C39.8092 14.7946 37.8111 9.96556 34.1808 6.33243C30.5511 2.69962 25.7237 0.6979 20.5803 0.695557C9.98294 0.695557 1.3581 9.31743 1.35372 19.9149" fill="url(#paint0_linear_101_2918)"/>
<path d="M0.667188 19.9088C0.666094 23.4177 1.58281 26.8431 3.32562 29.8625L0.5 40.1792L11.058 37.4109C13.967 38.997 17.2423 39.8333 20.5752 39.8345H20.5837C31.56 39.8345 40.4953 30.902 40.5 19.9247C40.5019 14.6047 38.4319 9.60203 34.6719 5.83875C30.9114 2.07594 25.9114 0.0021875 20.5837 0C9.60562 0 0.671719 8.93125 0.667344 19.9088H0.667188ZM6.95469 29.3425L6.56047 28.7167C4.90328 26.0817 4.02859 23.0367 4.02984 19.91C4.03344 10.7858 11.4591 3.3625 20.59 3.3625C25.0119 3.36438 29.1675 5.08813 32.2931 8.21563C35.4186 11.3434 37.1384 15.5013 37.1373 19.9234C37.1333 29.0477 29.7075 36.4719 20.5837 36.4719H20.5772C17.6064 36.4703 14.6928 35.6725 12.1519 34.1648L11.5472 33.8063L5.28188 35.4489L6.95469 29.3423V29.3425Z" fill="url(#paint1_linear_101_2918)"/>
<path d="M15.6058 11.5855C15.233 10.7569 14.8407 10.7402 14.4861 10.7257C14.1958 10.7132 13.8639 10.7141 13.5324 10.7141C13.2005 10.7141 12.6613 10.839 12.2055 11.3366C11.7492 11.8348 10.4636 13.0385 10.4636 15.4868C10.4636 17.9352 12.2469 20.3013 12.4955 20.6337C12.7444 20.9654 15.9382 26.1504 20.9963 28.1451C25.2 29.8027 26.0555 29.473 26.9678 29.3899C27.8803 29.3071 29.9122 28.1865 30.3267 27.0244C30.7416 25.8626 30.7416 24.8666 30.6172 24.6585C30.4928 24.4512 30.161 24.3266 29.6633 24.0779C29.1655 23.829 26.7189 22.6251 26.2628 22.459C25.8066 22.293 25.4749 22.2102 25.143 22.7085C24.8111 23.206 23.8582 24.3266 23.5677 24.6585C23.2775 24.9912 22.9871 25.0326 22.4896 24.7837C21.9916 24.534 20.3889 24.0091 18.4875 22.314C17.0082 20.9949 16.0094 19.366 15.7191 18.8677C15.4288 18.3702 15.688 18.1005 15.9375 17.8526C16.1611 17.6296 16.4353 17.2715 16.6844 16.981C16.9325 16.6904 17.0153 16.483 17.1813 16.1512C17.3474 15.819 17.2642 15.5283 17.14 15.2794C17.0153 15.0305 16.0483 12.5696 15.6058 11.5857" fill="white"/>
</g>
<defs>
<linearGradient id="paint0_linear_101_2918" x1="20.4999" y1="39.4838" x2="20.4999" y2="0.695557" gradientUnits="userSpaceOnUse">
<stop stop-color="#1FAF38"/>
<stop offset="1" stop-color="#60D669"/>
</linearGradient>
<linearGradient id="paint1_linear_101_2918" x1="20.5" y1="40.1792" x2="20.5" y2="0" gradientUnits="userSpaceOnUse">
<stop stop-color="#F9F9F9"/>
<stop offset="1" stop-color="white"/>
</linearGradient>
<clipPath id="clip0_101_2918">
<rect width="40" height="40.3125" fill="white" transform="translate(0.5)"/>
</clipPath>
</defs>
</svg>
